<?xml version="1.0" encoding="UTF-8" standalone="no"?>
<svg
   xmlns:svg="http://www.w3.org/2000/svg"
   xmlns="http://www.w3.org/2000/svg"
   version="1.1"
   width="599.03467"
   height="157.12878"
   id="svg4324">
  <defs
     id="defs4326" />
  <g
     transform="translate(-50.48267,-453.79779)"
     id="layer1">
    <path
       d="m 55.499477,605.59843 c 0,0 -2.196747,-50.62274 43.63927,-96.57407 9.744923,-9.77449 19.992463,-17.65675 30.086263,-24.01934 l 0,65.02725 34.1427,0 c -1.6409,1.7976 -3.34685,3.5893 -5.12673,5.37213 -45.83306,45.95724 -102.741503,50.19403 -102.741503,50.19403 z M 141.80234,477.77912 c 32.33918,-16.88508 60.07495,-18.95174 60.07495,-18.95174 0,0 1.703,39.21029 -29.12832,79.93732 l -30.94663,0 0,-60.98558"
       id="path246"
       style="fill:#da511f;fill-opacity:1;fill-rule:evenodd;stroke:none" />
    <path
       d="m 582.36088,577.30974 -0.60019,0 0,1.33934 0.56472,0 c 0.50852,0 0.82488,-0.21584 0.82488,-0.66819 0,-0.44349 -0.28087,-0.67115 -0.78941,-0.67115 z m 1.19743,3.88791 -1.35708,-1.93656 -0.44054,0 0,1.86856 -0.75097,0 0,-4.52357 1.35116,0 c 0.94906,0 1.58178,0.476 1.58178,1.31863 0,0.65045 -0.35184,1.07029 -0.91359,1.24768 l 1.31864,1.85082 -0.7894,0.17444 z m -1.16195,-5.80674 c -1.91883,0 -3.42964,1.30385 -3.42964,3.62478 0,2.30319 1.52855,3.60704 3.4119,3.60704 1.91882,0 3.4326,-1.30385 3.4326,-3.60704 0,-2.32093 -1.53151,-3.62478 -3.41486,-3.62478 z m -0.0177,7.70488 c -2.35937,0 -3.97662,-1.635 -3.97662,-4.0801 0,-2.42736 1.65274,-4.09784 3.99435,-4.09784 2.33572,0 3.97662,1.6557 3.97662,4.09784 0,2.42736 -1.67047,4.0801 -3.99435,4.0801 m -16.21688,22.83079 c -3.54791,0 -6.81494,-0.86333 -8.7249,-1.8183 l 0.37549,-2.19379 c 2.00457,1.11759 5.03507,2.10509 8.57707,2.10509 4.6241,0 7.88523,-2.56042 7.88523,-6.08467 0,-3.06302 -1.81831,-4.67732 -7.55409,-7.11651 -6.48381,-2.77624 -8.99986,-4.60045 -8.99986,-8.8609 0,-4.22496 4.28705,-7.41217 9.55865,-7.41217 3.35277,0 5.59979,0.70367 7.41514,1.53742 l -0.37254,2.18788 c -1.72665,-1.0348 -4.0594,-1.82125 -7.18451,-1.82125 -4.19837,0 -6.99529,2.52787 -6.99529,5.38098 0,3.06303 2.23814,4.76012 7.60435,6.95687 6.15857,2.56631 8.95255,4.63297 8.95255,8.8609 0,4.93158 -4.42898,8.27845 -10.53729,8.27845 m -31.10924,-0.36958 0,-30.63914 17.35223,0 0,1.90404 -14.92783,0 0,11.71993 11.94463,0 0.32522,1.90403 -12.26985,0 0,13.20709 15.44228,0 0,1.90405 -17.86668,0 m -10.86842,0 2.42605,0 0,-30.63915 -2.42605,0 0,30.63915 z m -16.40613,-28.7351 0,28.7351 -2.43031,0 0,-28.7351 -11.33557,0 0,-1.907 24.6757,0 0.32818,1.907 -11.238,0 m -20.52168,28.7351 2.42242,0 0,-30.63915 -2.42242,0 0,30.63915 z m -17.49415,0.36958 c -3.54495,0 -6.81494,-0.86333 -8.7249,-1.8183 l 0.37253,-2.19379 c 2.00457,1.11759 5.03212,2.10509 8.58298,2.10509 4.6182,0 7.88522,-2.56042 7.88522,-6.08467 0,-3.06302 -1.82421,-4.67732 -7.56591,-7.11651 -6.47789,-2.77624 -8.99395,-4.60045 -8.99395,-8.8609 0,-4.22496 4.28706,-7.41217 9.55866,-7.41217 3.36164,0 5.60274,0.70367 7.41809,1.53742 l -0.37254,2.18788 c -1.72665,-1.0348 -4.0594,-1.82125 -7.18155,-1.82125 -4.20427,0 -6.99825,2.52787 -6.99825,5.38098 0,3.06303 2.23814,4.76012 7.60435,6.95687 6.15858,2.56631 8.95552,4.63297 8.95552,8.8609 0,4.93158 -4.43194,8.27845 -10.54025,8.27845 m -26.16878,-29.10468 -5.78309,0 0,12.54185 5.27455,0 c 5.45788,0 8.90525,-2.19379 8.90525,-6.33301 0,-3.9707 -3.1192,-6.20884 -8.39671,-6.20884 z m 11.10495,29.06328 -11.99192,-14.65582 -4.89612,0 0,14.32764 -2.42145,0 0,-30.6421 8.39377,0 c 6.20292,0 10.63485,3.2286 10.63485,8.03601 0,4.42602 -3.77557,7.32643 -8.95552,8.0774 l 11.7554,14.36017 -2.51901,0.4967 m -42.53646,-0.32818 0,-30.63913 17.35519,0 0,1.90403 -14.93079,0 0,11.71993 11.94167,0 0.32818,1.90404 -12.26985,0 0,13.20708 15.43931,0 0,1.90405 -17.86371,0 m -19.20896,0.16262 -1.86857,0 -13.76292,-30.63619 2.4717,-0.49672 12.32011,27.94865 12.17524,-27.61749 2.51902,0 -13.85458,30.80174 m -22.61792,-0.16261 2.42172,0 0,-30.63915 -2.42172,0 0,30.63915 z m -10.02285,0 -21.55353,-26.91384 0,26.91384 -2.33275,0 0,-30.63913 2.14647,0 20.90014,26.12442 0,-26.12442 2.3298,0 0,30.63913 -1.49013,0 m -33.85591,0 -0.70366,-3.81105 c -3.40304,2.61068 -7.22888,4.18063 -11.14635,4.18063 -6.90364,0 -11.47453,-3.10443 -11.47453,-10.1825 l 0,-20.82622 2.4244,0 0,20.69909 c 0,5.67665 3.35574,8.40558 9.18909,8.40558 4.10374,0 7.51269,-1.8183 10.91573,-4.51471 l 0,-24.58995 2.4244,0 0,30.63913 -1.62908,0 m 301.31793,-48.25155 0,-30.63914 2.41848,0 0,28.73214 13.9965,0 0.32819,1.907 -16.74317,0 m -21.47667,-27.94569 -6.9539,15.56054 13.90484,0 -6.95094,-15.56054 z m 12.59508,28.27092 -4.8015,-10.80043 -15.58124,0 -4.66845,10.4752 -2.52197,0 13.95215,-30.80471 2.19378,0 13.89598,30.63618 -2.46875,0.49375 m -35.47318,-0.32522 -21.54762,-26.91384 0,26.91384 -2.33571,0 0,-30.63914 2.14648,0 20.90309,26.12443 0,-26.12443 2.3298,0 0,30.63914 -1.49604,0 m -44.9993,-29.31459 c -7.79061,0 -12.9203,5.67074 -12.9203,13.9965 0,8.31984 5.21839,13.99059 12.9203,13.99059 7.7847,0 12.91734,-5.67075 12.91734,-13.99059 0,-8.32576 -5.22134,-13.9965 -12.91734,-13.9965 z m -0.0503,29.89113 c -8.85793,0 -15.30035,-6.53998 -15.30035,-15.85915 0,-9.31327 6.44242,-15.93603 15.39497,-15.93603 8.86385,0 15.2974,6.54294 15.2974,15.8562 0,9.31326 -6.43355,15.93898 -15.39202,15.93898 m -24.57815,-0.57654 2.42985,0 0,-30.63915 -2.42985,0 0,30.63915 z m -17.46752,-28.7351 0,28.7351 -2.43328,0 0,-28.7351 -11.32965,0 0,-1.907 24.6757,0 0.32523,1.907 -11.238,0 m -25.92634,0.78941 -6.9539,15.56054 13.90189,0 -6.94799,-15.56054 z m 12.59508,28.27091 -4.80742,-10.80042 -15.58418,0 -4.66255,10.4752 -2.51902,0 13.95215,-30.80471 2.18788,0 13.90189,30.63618 -2.46875,0.49375 m -33.48635,-0.32522 -21.5565,-26.91384 0,26.91384 -2.32979,0 0,-30.63914 2.14647,0 20.89423,26.12443 0,-26.12443 2.33275,0 0,30.63914 -1.48716,0 m -42.44185,-28.7351 -5.78309,0 0,12.5389 5.26864,0 c 5.46082,0 8.91116,-2.19084 8.91116,-6.33006 0,-3.9707 -3.12511,-6.20884 -8.39671,-6.20884 z m 11.10495,29.06032 -11.99193,-14.65581 -4.89611,0 0,14.33059 -2.42736,0 0,-30.6421 8.39671,0 c 6.20589,0 10.63486,3.2286 10.63486,8.03305 0,4.42897 -3.77557,7.32644 -8.95847,8.07741 l 11.75836,14.36311 -2.51606,0.49375 m -43.57718,-0.32522 0,-30.63914 17.35223,0 0,1.90404 -14.92783,0 0,11.71992 11.94168,0 0.32522,1.90109 -12.2669,0 0,13.20709 15.44228,0 0,1.907 -17.86668,0 m -16.21985,-28.7351 0,28.7351 -2.42736,0 0,-28.7351 -11.33853,0 0,-1.907 24.67867,0 0.32817,1.907 -11.24095,0 m -19.44845,28.7351 -21.55059,-26.91384 0,26.91384 -2.32978,0 0,-30.63914 2.14056,0 20.9031,26.12443 0,-26.12443 2.33275,0 0,30.63914 -1.49604,0 m -35.78952,0 2.42522,0 0,-30.63915 -2.42522,0 0,30.63915 z m 303.47623,-53.36054 0,-44.97565 30.44105,0 0,7.75514 -19.1794,0 0,9.88092 14.44887,0 1.46646,7.93253 -15.91533,0 0,11.65192 19.91559,0 0,7.75514 -31.17724,0 m -20.78778,-36.92486 0,36.92485 -11.39174,0 0,-36.92485 -15.9242,0 0,-8.0508 42.63402,0 1.46943,8.0508 -16.78751,0 m -45.17079,2.30615 -6.7292,16.27011 13.45544,0 -6.72624,-16.27011 z m 14.45477,35.08585 -4.66255,-11.29712 -19.59036,0 -4.46445,10.82998 -11.1227,0 19.92151,-45.14712 11.72879,0 19.45141,43.9024 -11.26165,1.71186 m -72.1408,-0.46714 0,-44.97565 30.4381,0 0,7.75514 -19.18236,0 0,9.88092 14.45478,0 1.46942,7.93253 -15.9242,0 0,11.65192 19.91855,0 0,7.75514 -31.17429,0 m -27.74168,-37.6374 -4.86064,0 0,13.72745 4.66255,0 c 5.925,0 9.19499,-2.18787 9.19499,-6.8652 0,-4.43785 -3.06894,-6.86225 -8.9969,-6.86225 z m 11.79383,38.10158 -13.18935,-17.57102 -3.39712,0 0,17.10388 -11.12564,0 0,-44.9727 17.04769,0 c 11.7968,0 18.72114,4.73351 18.72114,13.55006 0,6.38919 -3.72827,10.41607 -10.12337,12.37038 l 13.65353,17.81048 -11.58688,1.70892 m -46.90335,-0.46418 -0.79532,-4.49697 c -4.99664,3.13398 -9.93119,5.0262 -16.05724,5.0262 -10.66146,0 -16.85256,-4.43488 -16.85256,-15.08748 l 0,-30.4174 11.38879,0 0,29.17268 c 0,5.44603 2.53083,8.10697 8.19271,8.10697 4.5354,0 8.46175,-1.71187 12.26097,-4.61228 l 0,-32.66737 11.45679,0 0,44.97565 -9.59414,0 m -60.16068,-34.61871 -6.72033,16.27011 13.44953,0 -6.7292,-16.27011 z m 14.45772,35.08585 -4.66254,-11.29712 -19.58446,0 -4.46445,10.82998 -11.12269,0 19.91855,-45.14712 11.71993,0 19.45731,43.9024 -11.26165,1.71186 m -71.27747,-0.46714 0,-44.97565 11.38878,0 0,36.69129 16.45638,0 1.53447,8.28436 -29.37963,0 m -53.14474,101.68601 1.53314,0 0,-146.71488 -1.53314,0 0,146.71488 z"
       id="path250"
       style="fill:#000000;fill-opacity:1;fill-rule:nonzero;stroke:none" />
  </g>
</svg>
