<?xml version="1.0" encoding="UTF-8" standalone="no"?>
<!-- Created with Inkscape (http://www.inkscape.org/) -->

<svg
   xmlns:dc="http://purl.org/dc/elements/1.1/"
   xmlns:cc="http://creativecommons.org/ns#"
   xmlns:rdf="http://www.w3.org/1999/02/22-rdf-syntax-ns#"
   xmlns:svg="http://www.w3.org/2000/svg"
   xmlns="http://www.w3.org/2000/svg"
   xmlns:sodipodi="http://sodipodi.sourceforge.net/DTD/sodipodi-0.dtd"
   xmlns:inkscape="http://www.inkscape.org/namespaces/inkscape"
   width="363.69833"
   height="228.25702"
   id="svg3825"
   version="1.1"
   inkscape:version="0.48.2 r9819"
   sodipodi:docname="cmc.svg">
  <defs
     id="defs3827" />
  <sodipodi:namedview
     id="base"
     pagecolor="#ffffff"
     bordercolor="#666666"
     borderopacity="1.0"
     inkscape:pageopacity="0.0"
     inkscape:pageshadow="2"
     inkscape:zoom="1.5138469"
     inkscape:cx="238.88944"
     inkscape:cy="119.47786"
     inkscape:document-units="px"
     inkscape:current-layer="layer1"
     showgrid="true"
     showborder="false"
     inkscape:showpageshadow="false"
     inkscape:window-width="1366"
     inkscape:window-height="746"
     inkscape:window-x="-8"
     inkscape:window-y="-8"
     inkscape:window-maximized="1"
     inkscape:snap-global="false"
     fit-margin-top="0"
     fit-margin-left="0"
     fit-margin-right="0"
     fit-margin-bottom="0">
    <inkscape:grid
       type="xygrid"
       id="grid3833"
       empspacing="5"
       visible="true"
       enabled="true"
       snapvisiblegridlinesonly="true"
       spacingx="10px"
       spacingy="10px" />
  </sodipodi:namedview>
  <metadata
     id="metadata3830">
    <rdf:RDF>
      <cc:Work
         rdf:about="">
        <dc:format>image/svg+xml</dc:format>
        <dc:type
           rdf:resource="http://purl.org/dc/dcmitype/StillImage" />
        <dc:title></dc:title>
      </cc:Work>
    </rdf:RDF>
  </metadata>
  <g
     inkscape:label="Layer 1"
     inkscape:groupmode="layer"
     id="layer1"
     transform="translate(418.269,-875.4026)">
    <g
       id="g4104"
       transform="translate(-12.446095,146.73291)" />
    <g
       id="g4167"
       transform="translate(217.48982,97.870417)">
      <g
         id="g4262"
         transform="translate(355.02014,60.769213)" />
    </g>
    <g
       id="g5166"
       transform="translate(4.6568629,149.01961)" />
    <g
       id="g5158"
       transform="translate(16.764706,148.08824)" />
    <g
       id="g5226"
       transform="translate(112.29669,-4.6239813)" />
    <g
       id="g5272"
       transform="translate(112.95726,58.79062)">
      <path
         style="fill:#e31a13"
         d="m -496.97626,1044.496 c -3.9875,-0.055 -8.94449,-0.4997 -11.01553,-0.9876 -2.07104,-0.4879 -5.50374,-1.7739 -7.62822,-2.8577 -2.12447,-1.0839 -5.6932,-4.0502 -7.9305,-6.5919 -2.2373,-2.5417 -4.8796,-6.948 -5.87178,-9.7918 -1.68051,-4.8167 -1.80397,-10.6458 -1.80397,-85.17056 0,-64.79714 0.2629,-81.0452 1.3834,-85.5 0.76087,-3.025 2.64262,-8.30692 4.18166,-11.73761 1.55845,-3.47393 5.07143,-8.64114 7.92879,-11.66237 3.03138,-3.20524 7.45767,-6.52904 10.81833,-8.12374 3.1283,-1.48444 9.51282,-3.32216 14.18782,-4.08382 6.95013,-1.13234 33.66266,-1.38338 146.5,-1.37679 114.91009,0.007 138.87743,0.24165 143.24407,1.40412 2.88424,0.76783 7.26303,2.37342 9.73064,3.56797 2.46762,1.19455 6.69766,4.15986 9.40008,6.58958 2.70243,2.42972 6.30918,6.59262 8.01498,9.25089 1.70581,2.65827 4.07391,7.49689 5.26244,10.7525 1.86988,5.12192 2.22059,8.61846 2.60354,25.95719 l 0.44258,20.03793 -19.6287,17.87348 c -10.79578,9.83042 -19.5029,18.18023 -19.34916,18.55515 0.15374,0.37492 8.94203,8.46641 19.52953,17.9811 l 19.25,17.29942 0,9.86827 c 0,5.42754 -0.68913,14.15078 -1.53139,19.38497 -0.84227,5.23422 -2.66264,12.56862 -4.04527,16.29882 -1.38263,3.7301 -4.856,9.8835 -7.71861,13.6741 -3.20577,4.245 -7.62069,8.5367 -11.49524,11.1743 -3.45977,2.3552 -8.85977,5.077 -12,6.0484 -5.23899,1.6206 -11.78514,1.7661 -79.43676,1.7661 l -73.72728,0 -2.77272,-2.7724 -2.77273,-2.7725 -0.5,-88.22754 -0.5,-88.22752 -16.67956,0 c -15.37163,0 -16.90072,0.16439 -19.5,2.0964 -1.55124,1.15302 -3.37631,3.17802 -4.0557,4.5 -0.95208,1.85259 -1.23864,22.32185 -1.25,89.28986 l -0.0147,86.8863 -9.25,-0.4917 c -6.56555,-0.349 -10.78215,-1.1535 -14.52943,-2.7721 -3.27737,-1.4156 -6.93986,-4.1272 -9.65797,-7.1504 -2.4082,-2.6785 -5.18878,-7.0048 -6.17907,-9.6142 -1.6675,-4.3937 -1.82649,-10.6039 -2.1521,-84.05927 l -0.35157,-79.3151 -16.87029,0.3151 c -15.28421,0.28549 -17.13537,0.5122 -19.68992,2.41151 -1.55081,1.15302 -3.37552,3.17802 -4.05491,4.5 -0.95204,1.8525 -1.23864,22.29374 -1.25,89.1536 l -0.0147,86.74996 -7.25,-0.1004 z m 227.52234,-45.97851 44.77235,0.0789 4.46177,-4.11272 c 2.69158,-2.48101 4.86262,-5.5558 5.47208,-7.75 0.55567,-2.00051 1.01282,-9.45828 1.01588,-16.57283 0.005,-11.90909 -0.16696,-13.1192 -2.16873,-15.25 l -2.17432,-2.3144 -34.12568,0 c -25.20887,0 -34.43924,-0.31355 -35.32569,-1.2 -0.85161,-0.85161 -1.2,-6.88389 -1.2,-20.77749 0,-16.1007 0.27646,-19.9722 1.5567,-21.8 l 1.55671,-2.22251 34.74329,0 c 25.68923,0 35.05602,-0.31272 35.9433,-1.2 0.83196,-0.83196 1.19495,-5.96922 1.18355,-16.75 -0.0151,-14.2456 -0.20381,-15.8768 -2.25,-19.4459 -1.22845,-2.14274 -3.80153,-4.73024 -5.71795,-5.75 -3.24584,-1.72716 -6.59611,-1.8541 -48.93555,-1.8541 -45.28945,0 -45.45938,0.008 -47.7656,2.17431 l -2.31445,2.17432 0,64.1707 c 0,59.86752 0.11735,64.27293 1.75,65.69519 0.9625,0.83848 2.425,1.7727 3.25,2.07604 0.825,0.30335 21.64755,0.58707 46.27234,0.63049 z"
         id="path5274"
         inkscape:connector-curvature="0" />
    </g>
  </g>
</svg>
