<?xml version="1.0" encoding="UTF-8" standalone="no"?>
<svg width="214px" height="46px" viewBox="0 0 214 46" version="1.1" xmlns="http://www.w3.org/2000/svg" xmlns:xlink="http://www.w3.org/1999/xlink">
    <!-- Generator: Sketch 39 (31667) - http://www.bohemiancoding.com/sketch -->
    <title>Capa_1 Copy</title>
    <desc>Created with Sketch.</desc>
    <defs></defs>
    <g id="Page-1" stroke="none" stroke-width="1" fill="none" fill-rule="evenodd">
        <g id="Artboard-9-Copy-3" transform="translate(-113.000000, -805.000000)">
            <g id="Group-46" transform="translate(0.000000, 788.000000)">
                <g id="Capa_1-Copy" transform="translate(113.000000, 17.000000)">
                    <g id="Group">
                        <g id="Shape" transform="translate(54.902622, 38.400000)" fill="#ABA89E">
                            <path d="M0,1.72 L2.48464419,1.72 C2.80524345,1.72 3.1258427,1.76 3.36629213,1.84 C3.60674157,1.92 3.84719101,2.04 4.00749064,2.2 C4.24794007,2.44 4.36816479,2.76 4.36816479,3.12 L4.36816479,3.12 C4.36816479,3.32 4.32808989,3.48 4.28801498,3.6 C4.24794007,3.76 4.16779026,3.88 4.08764045,3.96 C4.00749064,4.08 3.88726592,4.16 3.8071161,4.24 C3.68689139,4.32 3.60674157,4.36 3.48651685,4.44 C3.64681648,4.48 3.8071161,4.56 3.96741573,4.64 C4.12771536,4.72 4.24794007,4.8 4.36816479,4.92 C4.48838951,5.04 4.56853933,5.16 4.64868914,5.32 C4.72883895,5.48 4.72883895,5.64 4.72883895,5.84 L4.72883895,5.84 C4.72883895,6.08 4.68876404,6.32 4.56853933,6.52 C4.44831461,6.72 4.32808989,6.88 4.12771536,7 C3.92734082,7.12 3.72696629,7.24 3.44644195,7.32 C3.20599251,7.4 2.88539326,7.44 2.60486891,7.44 L0,7.44 L0,1.72 L0,1.72 L0,1.72 Z M2.36441948,4.28 C2.76516854,4.28 3.08576779,4.2 3.32621723,4.04 C3.56666667,3.88 3.68689139,3.6 3.68689139,3.28 L3.68689139,3.28 C3.68689139,3 3.56666667,2.76 3.36629213,2.6 C3.1659176,2.44 2.84531835,2.36 2.40449438,2.36 L0.641198502,2.36 L0.641198502,4.36 L2.36441948,4.36 L2.36441948,4.28 L2.36441948,4.28 Z M2.60486891,6.92 C3.04569288,6.92 3.40636704,6.84 3.64681648,6.64 C3.88726592,6.44 4.00749064,6.2 4.00749064,5.88 L4.00749064,5.88 C4.00749064,5.56 3.88726592,5.32 3.60674157,5.16 C3.36629213,5 2.96554307,4.88 2.44456929,4.88 L0.601123596,4.88 L0.601123596,6.92 L2.60486891,6.92 L2.60486891,6.92 L2.60486891,6.92 Z"></path>
                            <polygon points="13.4250936 5.2 11.0205993 1.72 11.8220974 1.72 13.7857678 4.6 15.7494382 1.72 16.5108614 1.72 14.106367 5.2 14.106367 7.52 13.4651685 7.52 13.4651685 5.2"></polygon>
                            <polygon points="28.5333333 1.72 29.2146067 1.72 31.3385768 4.88 33.4625468 1.72 34.1438202 1.72 34.1438202 7.52 33.5026217 7.52 33.5026217 2.8 31.3786517 5.92 31.258427 5.92 29.1344569 2.84 29.1344569 7.52 28.4932584 7.52 28.4932584 1.72"></polygon>
                            <polygon points="41.3573034 1.72 45.5651685 1.72 45.5651685 2.32 42.0385768 2.32 42.0385768 4.32 45.2044944 4.32 45.2044944 4.92 42.0385768 4.92 42.0385768 6.96 45.6052434 6.96 45.6052434 7.56 41.3573034 7.56 41.3573034 1.72"></polygon>
                            <polygon points="52.5382022 1.72 53.1794007 1.72 53.1794007 6.92 56.4254682 6.92 56.4254682 7.52 52.4981273 7.52 52.4981273 1.72"></polygon>
                            <polygon points="63.358427 1.72 63.9996255 1.72 63.9996255 7.52 63.358427 7.52 63.358427 1.72"></polygon>
                            <path d="M73.4973783,1.68 L74.0985019,1.68 L76.7434457,7.52 L76.0220974,7.52 L75.340824,6 L72.1749064,6 L71.493633,7.52 L70.8123596,7.52 L73.4973783,1.68 L73.4973783,1.68 L73.4973783,1.68 Z M75.1404494,5.4 L73.8179775,2.44 L72.4955056,5.4 L75.1404494,5.4 L75.1404494,5.4 L75.1404494,5.4 Z M74.3389513,1.13686838e-13 L75.0202247,0.32 L74.0985019,1.2 L73.5775281,1.2 L74.3389513,1.13686838e-13 L74.3389513,1.13686838e-13 L74.3389513,1.13686838e-13 Z"></path>
                        </g>
                        <g id="Shape" fill="#5B2B82">
                            <path d="M11.9423221,20.32 C12.0625468,20.36 12.1426966,20.32 12.0625468,20.2 C11.541573,19.32 10.3393258,18.56 9.13707865,18.36 C8.1752809,18.2 6.69250936,18.04 4.92921348,18.56 C3.08576779,19.12 1.80337079,20.24 0.921722846,21.4 C0.0400749064,22.6 -0.120224719,24.28 0.120224719,25.44 C0.360674157,26.68 0.681273408,27.16 1.64307116,27.76 C2.44456929,28.24 3.00561798,28.16 3.48651685,28 C3.92734082,27.84 4.00749064,27.44 3.72696629,26.96 C3.52659176,26.6 2.88539326,26.52 2.60486891,26.4 C1.80337079,26.04 1.00187266,24.64 2.12397004,22.52 C2.20411985,24 3.60674157,25.8 5.28988764,24.68 C6.17153558,24.08 6.33183521,22.44 6.73258427,21.84 C7.45393258,20.76 8.1752809,20.04 9.29737828,19.92 C10.4194757,19.8 11.541573,20.12 11.9423221,20.32"></path>
                            <path d="M13.1846442,19.28 C13.264794,19.44 13.3850187,19.48 13.264794,19.12 C12.6636704,16.88 10.8202247,14.72 9.4576779,13.56 C7.85468165,12.2 5.49026217,11.16 3.92734082,11.32 C2.88539326,11.44 1.72322097,11.68 1.00187266,12.92 C0.480898876,13.84 0.120224719,15.08 0.280524345,16.28 C0.400749064,17.36 1.36254682,18.8 1.84344569,17.92 C2.04382022,17.48 1.60299625,17 1.60299625,16.16 C1.60299625,14.92 2.16404494,14.8 2.16404494,14.8 C1.80337079,16.6 3.56666667,17.4 4.32808989,16.92 C5.32996255,16.28 6.8928839,16.12 7.65430712,16.2 C11.7419476,16.68 12.9441948,18.72 13.1846442,19.28"></path>
                            <path d="M14.988015,18.68 C14.7876404,14 12.7438202,6.56 8.97677903,4.72 C8.49588015,4.48 7.97490637,4.2 7.13333333,4.44 C6.21161049,4.72 5.45018727,5.56 5.49026217,7.16 C5.53033708,8.48 6.05131086,8.96 7.41385768,9.68 C8.8164794,10.4 10.4595506,11.68 11.8220974,13.36 C13.3850187,15.28 14.5071161,17.12 14.8277154,18.68 C14.9479401,19.12 14.988015,18.88 14.988015,18.68"></path>
                            <path d="M23.8846442,19.92 C24.9666667,20.04 25.7280899,20.76 26.4494382,21.84 C26.8501873,22.44 26.970412,24.08 27.8921348,24.68 C29.5752809,25.76 30.9779026,24 31.0580524,22.52 C32.1801498,24.64 31.3786517,26.04 30.5771536,26.4 C30.2966292,26.52 29.6554307,26.64 29.4550562,26.96 C29.1745318,27.48 29.2947566,27.84 29.6955056,28 C30.1764045,28.16 30.7374532,28.24 31.5389513,27.76 C32.5007491,27.16 32.8213483,26.72 33.0617978,25.44 C33.2621723,24.28 33.1018727,22.6 32.2602996,21.4 C31.3786517,20.2 30.0962547,19.08 28.252809,18.56 C26.4895131,18.04 25.0067416,18.2 24.0449438,18.36 C22.8026217,18.56 21.6003745,19.32 21.1194757,20.2 C21.0393258,20.32 21.1194757,20.36 21.2397004,20.32 C21.6003745,20.12 22.7224719,19.8 23.8846442,19.92"></path>
                            <path d="M25.4475655,16.16 C26.2089888,16.08 27.7719101,16.24 28.7737828,16.88 C29.5752809,17.36 31.2985019,16.56 30.9378277,14.76 C30.9378277,14.76 31.4988764,14.92 31.4988764,16.12 C31.4988764,16.96 31.0580524,17.48 31.258427,17.88 C31.6992509,18.76 32.6610487,17.32 32.8213483,16.24 C32.941573,15.08 32.6209738,13.8 32.1,12.88 C31.3786517,11.64 30.2565543,11.4 29.1745318,11.28 C27.6116105,11.08 25.247191,12.12 23.6441948,13.52 C22.2816479,14.68 20.4382022,16.84 19.8370787,19.08 C19.7168539,19.48 19.8771536,19.4 19.9172285,19.24 C20.2378277,18.72 21.4400749,16.68 25.4475655,16.16"></path>
                            <path d="M18.1539326,18.68 C18.3543071,14 20.3981273,6.56 24.1651685,4.72 C24.6460674,4.48 25.1670412,4.2 26.0086142,4.44 C26.9303371,4.72 27.6917603,5.56 27.6516854,7.16 C27.6116105,8.48 27.0906367,8.96 25.7280899,9.68 C24.3254682,10.4 22.682397,11.68 21.3198502,13.36 C19.7970037,15.28 18.6348315,17.12 18.3142322,18.68 C18.2340824,19.12 18.1539326,18.88 18.1539326,18.68"></path>
                            <path d="M18.5546816,26.44 C18.5546816,27.44 17.6730337,28.28 16.5910112,28.28 C15.5089888,28.28 14.6273408,27.44 14.6273408,26.44 C14.6273408,25.44 15.5089888,24.6 16.5910112,24.6 C17.6730337,24.6 18.5546816,25.4 18.5546816,26.44"></path>
                            <path d="M11.9022472,22.68 C11.6217228,23.16 11.4213483,23.6 11.4213483,24.12 C11.4213483,24.44 11.5014981,24.8 11.7018727,25.2 C11.9423221,25.64 12.2228464,25.8 12.423221,25.84 C12.5835206,25.88 12.7037453,25.84 12.7838951,25.84 C13.1044944,24.88 13.6655431,24.36 14.2265918,23.88 C14.7876404,23.36 15.5089888,23.08 16.2303371,23.08 L16.8314607,23.08 C17.5127341,23.08 18.2340824,23.36 18.835206,23.88 C19.3962547,24.36 19.9172285,24.88 20.2779026,25.88 L20.5985019,25.88 C20.7988764,25.84 21.0794007,25.68 21.3198502,25.24 C21.5202247,24.84 21.6003745,24.48 21.6003745,24.16 C21.6003745,23.68 21.4,23.2 21.1194757,22.72 C19.7569288,20.36 17.2722846,20.12 16.5509363,20.08 L16.4307116,20.08 C15.7494382,20.08 13.264794,20.32 11.9022472,22.68"></path>
                            <path d="M16.6310861,0.04 C16.6310861,0.04 15.6292135,2.08 14.4269663,3.44 C13.4651685,4.52 13.5453184,5.04 14.106367,6.6 C15.1883895,9.4 15.9097378,13.64 16.270412,16.28 C16.3505618,17.12 16.5108614,18.16 16.5509363,18.4 L16.5509363,18.4 L16.5509363,18.4 C16.5509363,18.48 16.5910112,18.52 16.6310861,18.52 C16.671161,18.52 16.671161,18.48 16.671161,18.4 L16.711236,18.4 L16.711236,18.36 C16.7513109,18.12 16.8715356,17.04 16.9116105,16.36 C17.2722846,13.76 18.0737828,9.36 19.1558052,6.56"></path>
                            <path d="M19.1558052,6.56 C19.7569288,5 19.8370787,4.52 18.835206,3.4 C17.6329588,2.04 16.671161,0 16.6310861,0"></path>
                        </g>
                        <g id="Shape" transform="translate(54.902622, 8.800000)" fill="#525349">
                            <path d="M0,0.44 L5.61048689,0.44 C6.45205993,0.44 7.25355805,0.56 7.93483146,0.76 C8.61610487,0.96 9.21722846,1.28 9.73820225,1.72 C10.259176,2.12 10.6198502,2.64 10.9003745,3.24 C11.1808989,3.84 11.3011236,4.52 11.3011236,5.28 L11.3011236,5.32 C11.3011236,6.16 11.140824,6.88 10.8202247,7.48 C10.4996255,8.12 10.0588015,8.64 9.49775281,9.04 C8.93670412,9.44 8.29550562,9.76 7.5741573,10 C6.85280899,10.2 6.09138577,10.32 5.28988764,10.32 L1.12209738,10.32 L1.12209738,16.16 L0,16.16 L0,0.44 L0,0.44 L0,0.44 Z M5.37003745,9.2 C6.09138577,9.2 6.73258427,9.12 7.33370787,8.92 C7.93483146,8.72 8.41573034,8.48 8.85655431,8.16 C9.25730337,7.84 9.61797753,7.4 9.81835206,6.92 C10.0588015,6.44 10.1790262,5.92 10.1790262,5.32 L10.1790262,5.28 C10.1790262,4.64 10.0588015,4.08 9.81835206,3.64 C9.57790262,3.16 9.25730337,2.76 8.85655431,2.44 C8.45580524,2.12 7.93483146,1.88 7.37378277,1.72 C6.81273408,1.56 6.17153558,1.48 5.49026217,1.48 L1.12209738,1.48 L1.12209738,9.2 L5.37003745,9.2 L5.37003745,9.2 L5.37003745,9.2 Z"></path>
                            <path d="M24.2052434,0.32 L25.2872659,0.32 L32.4606742,16.12 L31.2183521,16.12 L29.2546816,11.72 L20.1576779,11.72 L18.1940075,16.12 L16.9917603,16.12 L24.2052434,0.32 L24.2052434,0.32 L24.2052434,0.32 Z M28.7737828,10.68 L24.7262172,1.6 L20.6385768,10.68 L28.7737828,10.68 L28.7737828,10.68 L28.7737828,10.68 Z"></path>
                            <path d="M39.393633,0.44 L45.8857678,0.44 C46.8475655,0.44 47.6891386,0.56 48.4104869,0.84 C49.1318352,1.12 49.7329588,1.48 50.2138577,1.96 C50.5745318,2.32 50.8550562,2.76 51.0554307,3.28 C51.2558052,3.8 51.37603,4.32 51.37603,4.88 L51.37603,4.92 C51.37603,5.56 51.2558052,6.16 51.0153558,6.68 C50.7749064,7.2 50.4543071,7.64 50.0535581,8 C49.652809,8.36 49.1719101,8.68 48.6108614,8.92 C48.0498127,9.16 47.4486891,9.32 46.8074906,9.4 L51.8970037,16.08 L50.494382,16.08 L45.5651685,9.6 L45.5250936,9.6 L40.5157303,9.6 L40.5157303,16.08 L39.3535581,16.08 L39.3535581,0.44 L39.393633,0.44 L39.393633,0.44 Z M45.7254682,8.56 C46.3666667,8.56 46.9677903,8.48 47.528839,8.32 C48.0898876,8.16 48.5707865,7.92 48.9314607,7.6 C49.3322097,7.28 49.652809,6.92 49.8531835,6.48 C50.093633,6.04 50.2138577,5.52 50.2138577,4.96 L50.2138577,4.92 C50.2138577,3.84 49.8131086,3 49.0516854,2.4 C48.2902622,1.8 47.2082397,1.48 45.7655431,1.48 L40.5157303,1.48 L40.5157303,8.56 L45.7254682,8.56 L45.7254682,8.56 L45.7254682,8.56 Z"></path>
                            <path d="M64.8011236,0.32 L65.8831461,0.32 L73.0565543,16.12 L71.8142322,16.12 L69.8505618,11.72 L60.7535581,11.72 L58.7898876,16.12 L57.5876404,16.12 L64.8011236,0.32 L64.8011236,0.32 L64.8011236,0.32 Z M69.4097378,10.68 L65.3220974,1.6 L61.2344569,10.68 L69.4097378,10.68 L69.4097378,10.68 L69.4097378,10.68 Z"></path>
                            <path d="M79.9895131,0.44 L85.1191011,0.44 C86.3213483,0.44 87.4434457,0.64 88.4453184,1.04 C89.447191,1.44 90.328839,2 91.0501873,2.68 C91.7715356,3.4 92.3325843,4.2 92.7333333,5.16 C93.1340824,6.12 93.3344569,7.12 93.3344569,8.24 L93.3344569,8.28 C93.3344569,9.4 93.1340824,10.4 92.7333333,11.36 C92.3325843,12.32 91.7715356,13.16 91.0501873,13.84 C90.328839,14.56 89.447191,15.08 88.4453184,15.48 C87.4434457,15.88 86.3213483,16.08 85.1191011,16.08 L79.9895131,16.08 L79.9895131,0.44 L79.9895131,0.44 L79.9895131,0.44 Z M85.1191011,15.04 C86.2011236,15.04 87.1629213,14.88 88.0445693,14.52 C88.9262172,14.16 89.6475655,13.68 90.2486891,13.08 C90.8498127,12.48 91.3307116,11.76 91.6513109,10.96 C91.9719101,10.16 92.1322097,9.28 92.1322097,8.32 L92.1322097,8.28 C92.1322097,7.36 91.9719101,6.48 91.6513109,5.64 C91.3307116,4.8 90.8498127,4.08 90.2486891,3.48 C89.6475655,2.88 88.9262172,2.36 88.0445693,2 C87.1629213,1.64 86.2011236,1.48 85.1191011,1.48 L81.1116105,1.48 L81.1116105,15.04 L85.1191011,15.04 L85.1191011,15.04 L85.1191011,15.04 Z"></path>
                            <polygon points="100.988764 0.44 102.150936 0.44 102.150936 16.12 100.988764 16.12 100.988764 0.44"></polygon>
                            <path d="M115.73633,16.32 C114.494007,16.32 113.37191,16.12 112.410112,15.68 C111.40824,15.28 110.446442,14.64 109.524719,13.8 L110.286142,12.92 C110.726966,13.32 111.127715,13.68 111.568539,13.96 C111.969288,14.24 112.410112,14.48 112.850936,14.68 C113.29176,14.88 113.772659,15 114.253558,15.12 C114.734457,15.2 115.255431,15.28 115.856554,15.28 C116.417603,15.28 116.938577,15.2 117.459551,15.04 C117.940449,14.88 118.341199,14.68 118.701873,14.4 C119.022472,14.12 119.302996,13.8 119.503371,13.4 C119.703745,13 119.783895,12.6 119.783895,12.16 L119.783895,12.12 C119.783895,11.72 119.703745,11.32 119.583521,11 C119.463296,10.68 119.222846,10.36 118.902247,10.12 C118.581648,9.84 118.140824,9.6 117.579775,9.4 C117.018727,9.2 116.297378,9 115.41573,8.8 C114.494007,8.6 113.692509,8.36 113.051311,8.12 C112.410112,7.84 111.849064,7.56 111.448315,7.2 C111.047566,6.84 110.726966,6.44 110.526592,5.96 C110.326217,5.48 110.246067,4.96 110.246067,4.36 L110.246067,4.32 C110.246067,3.72 110.366292,3.2 110.606742,2.68 C110.847191,2.16 111.207865,1.76 111.648689,1.36 C112.089513,1 112.610487,0.68 113.21161,0.48 C113.812734,0.28 114.494007,0.16 115.175281,0.16 C116.297378,0.16 117.259176,0.32 118.060674,0.64 C118.862172,0.96 119.66367,1.44 120.465169,2.08 L119.74382,3 C119.022472,2.36 118.261049,1.92 117.5397,1.64 C116.778277,1.36 116.016854,1.24 115.135206,1.24 C114.574157,1.24 114.053184,1.32 113.572285,1.48 C113.091386,1.64 112.730712,1.84 112.370037,2.12 C112.049438,2.4 111.768914,2.72 111.608614,3.08 C111.448315,3.44 111.32809,3.8 111.32809,4.24 L111.32809,4.28 C111.32809,4.68 111.40824,5.08 111.528464,5.4 C111.648689,5.72 111.889139,6.04 112.209738,6.32 C112.530337,6.6 113.011236,6.84 113.572285,7.08 C114.173408,7.32 114.894757,7.52 115.816479,7.72 C117.61985,8.08 118.902247,8.6 119.703745,9.28 C120.505243,9.96 120.905993,10.88 120.905993,12.04 L120.905993,12.08 C120.905993,12.72 120.785768,13.28 120.505243,13.8 C120.224719,14.32 119.90412,14.8 119.463296,15.16 C119.022472,15.52 118.461423,15.84 117.8603,16.04 C117.179026,16.24 116.497753,16.32 115.73633,16.32 L115.73633,16.32 L115.73633,16.32 Z"></path>
                            <path d="M134.331086,16.36 C133.409363,16.36 132.56779,16.2 131.806367,15.92 C131.044944,15.64 130.36367,15.2 129.802622,14.64 C129.241573,14.08 128.800749,13.36 128.48015,12.52 C128.159551,11.68 127.999251,10.72 127.999251,9.6 L127.999251,0.44 L129.161423,0.44 L129.161423,9.48 C129.161423,11.36 129.602247,12.8 130.52397,13.8 C131.445693,14.8 132.72809,15.32 134.371161,15.32 C135.132584,15.32 135.853933,15.2 136.495131,14.96 C137.13633,14.72 137.657303,14.36 138.098127,13.88 C138.538951,13.4 138.899625,12.8 139.140075,12.08 C139.380524,11.36 139.500749,10.52 139.500749,9.6 L139.500749,0.44 L140.662921,0.44 L140.662921,9.48 C140.662921,10.6 140.502622,11.6 140.182022,12.44 C139.861423,13.28 139.420599,14 138.899625,14.6 C138.338577,15.2 137.657303,15.64 136.89588,15.92 C136.134457,16.2 135.292884,16.36 134.331086,16.36 L134.331086,16.36 L134.331086,16.36 Z"></path>
                            <path d="M153.847566,16.32 C152.605243,16.32 151.483146,16.12 150.521348,15.68 C149.559551,15.24 148.557678,14.64 147.635955,13.8 L148.397378,12.92 C148.838202,13.32 149.238951,13.68 149.679775,13.96 C150.080524,14.24 150.521348,14.48 150.962172,14.68 C151.402996,14.88 151.883895,15 152.364794,15.12 C152.845693,15.2 153.366667,15.28 153.96779,15.28 C154.528839,15.28 155.049813,15.2 155.570787,15.04 C156.051685,14.88 156.452434,14.68 156.813109,14.4 C157.133708,14.12 157.414232,13.8 157.614607,13.4 C157.814981,13 157.895131,12.6 157.895131,12.16 L157.895131,12.12 C157.895131,11.72 157.814981,11.32 157.694757,11 C157.574532,10.68 157.334082,10.36 157.013483,10.12 C156.692884,9.84 156.25206,9.6 155.691011,9.4 C155.129963,9.2 154.408614,9 153.526966,8.8 C152.605243,8.6 151.803745,8.36 151.162547,8.12 C150.521348,7.84 149.9603,7.56 149.559551,7.2 C149.158801,6.84 148.838202,6.44 148.637828,5.96 C148.437453,5.48 148.357303,4.96 148.357303,4.36 L148.357303,4.32 C148.357303,3.72 148.477528,3.2 148.717978,2.68 C148.958427,2.16 149.319101,1.76 149.759925,1.36 C150.200749,1 150.721723,0.68 151.322846,0.48 C151.92397,0.28 152.605243,0.16 153.286517,0.16 C154.408614,0.16 155.370412,0.32 156.17191,0.64 C156.973408,0.96 157.774906,1.44 158.576404,2.08 L157.855056,3 C157.133708,2.36 156.372285,1.92 155.650936,1.64 C154.889513,1.36 154.12809,1.24 153.246442,1.24 C152.685393,1.24 152.164419,1.32 151.683521,1.48 C151.202622,1.64 150.841948,1.84 150.481273,2.12 C150.160674,2.4 149.88015,2.72 149.71985,3.08 C149.559551,3.44 149.439326,3.8 149.439326,4.24 L149.439326,4.28 C149.439326,4.68 149.519476,5.08 149.6397,5.4 C149.759925,5.72 150.000375,6.04 150.320974,6.32 C150.641573,6.6 151.122472,6.84 151.683521,7.08 C152.284644,7.32 153.005993,7.52 153.927715,7.72 C155.731086,8.08 157.013483,8.6 157.814981,9.28 C158.616479,9.96 159.017228,10.88 159.017228,12.04 L159.017228,12.08 C159.017228,12.72 158.897004,13.28 158.616479,13.8 C158.335955,14.32 158.015356,14.8 157.574532,15.16 C157.133708,15.52 156.572659,15.84 155.971536,16.04 C155.290262,16.24 154.608989,16.32 153.847566,16.32 L153.847566,16.32 L153.847566,16.32 Z"></path>
                        </g>
                    </g>
                </g>
            </g>
        </g>
    </g>
</svg>