<?xml version="1.0" encoding="UTF-8"?>
<!-- Generator: Adobe Illustrator 16.0.0, SVG Export Plug-In . SVG Version: 6.00 Build 0)  -->
<!DOCTYPE svg PUBLIC "-//W3C//DTD SVG 1.1//EN" "http://www.w3.org/Graphics/SVG/1.1/DTD/svg11.dtd">
<svg version="1.1" id="Capa_1" xmlns="http://www.w3.org/2000/svg" xmlns:xlink="http://www.w3.org/1999/xlink" x="0px" y="0px" width="841.89px" height="595.28px" viewBox="0 0 841.89 595.28" enable-background="new 0 0 841.89 595.28" xml:space="preserve">
<path fill="#205695" d="M265.708,451.54l-3.52,25.547c-4.622-2.611-9.493-4.671-14.582-6.186c-5.101-1.502-9.826-2.266-14.182-2.266  c-4.422,0-7.845,0.787-10.256,2.362s-3.623,3.805-3.623,6.683c0,3.683,4.931,6.899,14.781,9.644l7.342,2.108  c11.328,3.35,19.209,7.451,23.638,12.304c4.422,4.858,6.633,11.438,6.633,19.742c0,11.116-4.343,19.906-13.018,26.37  c-8.687,6.458-20.706,9.692-36.057,9.692c-6.434,0-12.789-0.502-19.058-1.514c-6.264-1.006-12.552-2.508-18.853-4.52l2.314-27.055  c5.088,2.581,10.389,4.567,15.884,5.961c2.75,0.66,5.452,1.157,8.093,1.49c2.653,0.327,5.519,0.497,8.602,0.497  c5.162,0,9.154-0.703,11.971-2.108c2.677-1.479,4.022-3.652,4.022-6.536c0-4.149-5.428-7.894-16.296-11.25l-6.336-1.908  c-10.989-3.61-18.683-7.651-23.081-12.098c-4.386-4.458-6.579-10.298-6.579-17.531c0-11.05,4.35-19.64,13.073-25.765  c8.711-6.124,20.979-9.189,36.802-9.189c2.75,0,5.361,0.097,7.845,0.303c2.484,0.194,5.161,0.563,8.045,1.103  C255.083,448.366,260.547,449.735,265.708,451.54z"/>
<rect x="291.654" y="448.826" fill="#205695" width="36.305" height="106.001"/>
<rect x="291.636" y="152.414" fill="#CD7D37" width="36.341" height="36.347"/>
<rect x="291.636" y="203.651" fill="#CD7D37" width="36.341" height="36.347"/>
<rect x="291.636" y="299.862" fill="#CD7D37" width="36.341" height="36.348"/>
<rect x="291.636" y="352.154" fill="#CD7D37" width="36.341" height="36.336"/>
<rect x="291.636" y="400.254" fill="#CD7D37" width="36.341" height="36.348"/>
<path fill="#205695" d="M383.547,412.8v36.026h25.952v26.146h-25.952v36.511c0,7.905,1.272,13.454,3.829,16.641  c2.544,3.187,20.512,3.635,22.124,3.169l0.6,23.547c-0.539,0.127-1.848,0.375-3.919,0.751c-2.084,0.363-4.562,0.781-7.439,1.248  c-1.878,0.2-3.695,0.363-5.434,0.503c-1.745,0.127-3.489,0.199-5.228,0.199c-14.218,0-24.607-3.513-31.18-10.553  c-3.15-3.477-5.531-8.093-7.136-13.86c-1.611-5.755-0.406-84.302-0.406-84.302v-24.449L383.547,412.8z"/>
<path fill="#205695" d="M418.549,448.826h38.31l14.588,66.661l1.205,6.942l0.806,8.058l1.206-8.96  c0.133-0.872,0.303-1.896,0.502-3.071c0.206-1.176,0.4-2.169,0.606-2.969l16.489-66.661h43.241l15.896,67.982l1.199,6.742  c0.133,0.806,0.303,1.812,0.509,3.011c0.2,1.212,0.297,2.483,0.297,3.828l0.908-9.656l0.503-3.622l15.284-68.285h35.196  L573.02,554.827h-41.436l-17.296-70.478c-0.339-1.417-0.672-3.392-1.005-5.948l-0.406-8.051l-1.206,9.359  c-0.205,2.29-0.436,3.828-0.702,4.64l-18.102,70.478h-41.835L418.549,448.826z"/>
<path fill="#205695" d="M758.664,400.751l-2.217,24.644c-1.406-0.605-2.866-1.103-4.374-1.509c-1.509-0.399-3.065-0.6-4.677-0.6  c-5.095,0-8.845,1.539-11.262,4.629c-2.417,3.083-3.616,7.941-3.616,14.575v6.336h25.334v26.353h-25.334v79.648h-35.803v-79.648  h-22.232v-26.353h22.232v-9.632c0-13.521,3.465-23.704,10.407-30.563c6.937-6.857,17.277-10.292,31.029-10.292  c3.949,0,7.603,0.206,10.952,0.605C752.461,399.346,755.647,399.945,758.664,400.751z"/>
<path fill="#205695" d="M774.348,448.826h36.306v106.001h-36.306V448.826z"/>
<rect x="44.099" y="448.826" fill="#CD7D37" width="36.335" height="36.348"/>
<rect x="143.442" y="400.254" fill="#CD7D37" width="36.341" height="36.348"/>
<rect x="93.246" y="352.154" fill="#CD7D37" width="36.341" height="36.336"/>
<rect x="44.099" y="251.763" fill="#CD7D37" width="36.335" height="36.335"/>
<rect x="44.099" y="103.26" fill="#CD7D37" width="36.335" height="36.347"/>
<rect x="93.246" y="152.414" fill="#CD7D37" width="36.341" height="36.347"/>
<rect x="143.442" y="203.651" fill="#CD7D37" width="36.341" height="36.347"/>
<rect x="193.492" y="251.763" fill="#CD7D37" width="36.341" height="36.335"/>
<rect x="193.492" y="352.154" fill="#CD7D37" width="36.341" height="36.336"/>
<rect x="193.492" y="103.26" fill="#CD7D37" width="36.341" height="36.347"/>
<rect x="242.64" y="55.16" fill="#CD7D37" width="36.347" height="36.341"/>
<rect x="242.64" y="103.26" fill="#CD7D37" width="36.347" height="36.347"/>
<rect x="242.64" y="203.651" fill="#CD7D37" width="36.347" height="36.347"/>
<rect x="242.64" y="251.763" fill="#CD7D37" width="36.347" height="36.335"/>
<rect x="242.64" y="299.862" fill="#CD7D37" width="36.347" height="36.348"/>
<rect x="242.64" y="352.154" fill="#CD7D37" width="36.347" height="36.336"/>
<rect x="343.165" y="251.763" fill="#CD7D37" width="36.347" height="36.335"/>
<rect x="389.835" y="203.651" fill="#CD7D37" width="36.348" height="36.347"/>
<rect x="438.988" y="103.26" fill="#CD7D37" width="36.342" height="36.347"/>
<rect x="389.835" y="352.154" fill="#CD7D37" width="36.348" height="36.336"/>
<rect x="438.988" y="251.763" fill="#CD7D37" width="36.342" height="36.335"/>
<rect x="487.089" y="299.862" fill="#CD7D37" width="36.347" height="36.348"/>
<rect x="620.653" y="400.254" fill="#CD7D37" width="36.341" height="36.348"/>
<rect x="774.33" y="400.254" fill="#CD7D37" width="36.341" height="36.348"/>
<rect x="620.653" y="448.826" fill="#205695" width="36.305" height="106.001"/>
</svg>